<svg width="480" height="449" viewBox="0 0 480 449" fill="white" xmlns="http://www.w3.org/2000/svg">
    <path d="M89.1 170.625C96.8 148.825 109.3 128.325 126.9 110.825C189.4 48.325 290.7 48.325 353.2 110.825L370.3 128.025H320C302.3 128.025 288 142.325 288 160.025C288 177.725 302.3 192.025 320 192.025H447.5H447.9C465.6 192.025 479.9 177.725 479.9 160.025V32.025C479.9 14.325 465.6 0.0250015 447.9 0.0250015C430.2 0.0250015 415.9 14.325 415.9 32.025V83.225L398.4 65.625C310.9 -21.875 169.1 -21.875 81.6 65.625C57.2 90.025 39.6 118.725 28.8 149.425C22.9 166.125 31.7 184.325 48.3 190.225C64.9 196.125 83.2 187.325 89.1 170.725V170.625ZM23 257.325C18 258.825 13.2 261.525 9.3 265.525C5.3 269.525 2.6 274.325 1.2 279.525C0.900001 280.725 0.6 282.025 0.4 283.325C0.0999996 285.025 0 286.725 0 288.425V416.025C0 433.725 14.3 448.025 32 448.025C49.7 448.025 64 433.725 64 416.025V364.925L81.6 382.425C169.1 469.825 310.9 469.825 398.3 382.425C422.7 358.025 440.4 329.325 451.2 298.725C457.1 282.025 448.3 263.825 431.7 257.925C415.1 252.025 396.8 260.825 390.9 277.425C383.2 299.225 370.7 319.725 353.1 337.225C290.6 399.725 189.3 399.725 126.8 337.225L126.7 337.125L109.6 320.025H160C177.7 320.025 192 305.725 192 288.025C192 270.325 177.7 256.025 160 256.025H32.4C30.8 256.025 29.2 256.125 27.6 256.325C26 256.525 24.5 256.825 23 257.325Z"/>
</svg>
